<svg version="1.0" xmlns="http://www.w3.org/2000/svg" width="933.333" height="933.333" viewBox="0 0 700 700"><path d="M319.1 1.1c-53.9 4.5-117.2 27.8-168.6 62.2-21.8 14.7-37 27.3-56 46.8-19.3 19.8-34.6 39.8-48.4 63.2-61.5 104.9-61.1 249.7 1 355.3 32.9 55.9 81.6 101.3 137.4 128 20.5 9.8 34.8 13.4 40 10 7.7-5.1-2.5-19.8-28-40.4-16.2-13.2-33.9-30.9-38.4-38.5-8.1-13.8-10.7-27-11.6-58-1.3-45.4-7.1-66.8-22.4-82.6-12.1-12.5-18-26.9-18.8-46.2-1-20.3 3.7-34.4 15.1-46.1 7.4-7.5 10.6-12.7 14.7-23.9 4.3-11.8 6.6-22.3 8.4-38.1 2.7-24.5 7.1-40.1 17.1-60.3 27.4-54.9 83.7-99.5 145.4-115 17.6-4.4 30.7-5.8 50-5.2 30.7.9 52.5 6.5 82.5 21.2 45.2 22 82.2 58 102.9 100 10 20.2 13.1 32.2 17.9 68.5 3.2 23.6 9.8 39.9 21.2 52.1 11.9 12.7 15.9 23.7 15.8 43.4-.2 21-5.5 35-18.7 49.4-8.9 9.7-13.6 18.5-17.1 32.4-3.6 14.3-4.6 23-5.5 50.7-.7 18.7-1.5 28-2.9 34.9-4.6 21.5-14.5 34.7-45.1 59.6-24.7 20.1-37 36.1-31.8 41.3 3.4 3.4 15.9.5 32.8-7.4 47-22.2 90.4-61.5 124.8-113 35.9-53.8 57.8-115.4 62.3-175.4 4.3-57.9-11.1-124.3-41.7-179.2-41.8-75.2-110.6-135.7-189.9-167.1C416.4 5 366.5-2.8 319.1 1.1z"/><path d="M342 154.6c-40.7 7.9-90.2 29.2-105.6 45.5-5.1 5.4-6 7.9-4 11.7 5.5 10.7 45.4 27.8 83.6 35.8 19.9 4.2 34.4 5.1 50.7 3.1 36.5-4.5 83.2-20.8 98.3-34.4 6.7-6 6.9-9.5.8-15.6-18.3-18.2-83.5-44.8-113.3-46.2-4.4-.2-9.1-.1-10.5.1zM199.2 261c-5.6 2.4-9.7 19.9-9.7 42 0 13.8.2 15.9 2.1 19 3.9 6.7 13.5 10 34.9 12.1 16.4 1.6 188.4 2.4 223.5 1 45.7-1.8 55.1-4 60.8-14.5 2.3-4.3 2.2-30.7-.1-41.5-5-22.6-17.2-24.1-54.5-6.7-7.6 3.6-17.2 7.6-21.4 9-36.2 11.8-91.5 14.9-135.8 7.5-22.8-3.8-33.8-7.3-61.7-19.7-14.9-6.7-32.7-10.5-38.1-8.2zM198.5 380.7c-11.2.5-31 2.4-35.7 3.4-3.7.8-5.6 2-8.2 5.1-11.1 12.9-.2 21.6 32.9 26.3 23.8 3.3 36.3 3.7 123.8 4.2l88.7.5v27.6c0 15.3.5 31.7 1 36.7 3 26.6 11.1 39.9 18.3 30.2 5.5-7.3 8.7-23.8 8.7-45.2 0-24.9 2.5-36.4 9.1-41.9 6.3-5.4 13.6-6.9 52.2-11.1 15.4-1.7 33.6-5.7 42-9.4 4.7-2 9.7-6.1 9.7-8 0-2.3-14.8-5.8-34-8.1-33.8-4-96.2-7.8-164.5-10-26.5-.9-128.1-1.1-144-.3z"/><path d="M189.3 498.6c.4 32.7.7 38 2.5 46.3 8.6 38.7 34.3 52.1 107.7 56.2 24.4 1.3 104 .6 121-1.1 57.6-5.7 80.1-19.1 88.5-52.4 2.6-10.3 4.3-33.4 3.5-46.1-1.9-27.8-7.9-38.9-21.1-38.9-7.4 0-12.3 3.5-16.4 11.7-2.8 5.7-3.2 7.9-4.1 19.8-1.7 23.8-6.3 35.6-18.2 47.3-11.8 11.6-25.3 17-42.2 16.9-16.3-.1-30.6-5.8-42.2-16.6-11.4-10.7-16.8-21.2-21-40.7-4.6-22-7.4-27.6-16.1-32.3-9.7-5.3-15.9-5.8-82-6.4l-60.4-.5.5 36.8zM306.5 645.6c-17.9 2.1-26.9 5.1-29.5 9.9-3.3 6.2-.7 17.3 5.6 24.4 17.7 19.7 75.8 26.2 115.9 13 10.2-3.4 15.9-6.5 21.8-11.8 10.1-9.1 10.1-22.4.1-28.3-4.6-2.7-16.6-5.5-28.9-6.7-9.7-1-77.4-1.3-85-.5z"/></svg>