<?xml version="1.0" standalone="no"?>
<!DOCTYPE svg PUBLIC "-//W3C//DTD SVG 20010904//EN"
 "http://www.w3.org/TR/2001/REC-SVG-20010904/DTD/svg10.dtd">
<svg version="1.0" xmlns="http://www.w3.org/2000/svg"
 width="700.000000pt" height="700.000000pt" viewBox="0 0 700.000000 700.000000"
 preserveAspectRatio="xMidYMid meet">
<metadata>
Created by potrace 1.14, written by Peter Selinger 2001-2017
</metadata>
<g transform="translate(0.000000,700.000000) scale(0.100000,-0.100000)"
fill="#000000" stroke="none">
<path d="M3191 6989 c-539 -45 -1172 -278 -1686 -622 -218 -147 -370 -273
-560 -468 -193 -198 -346 -398 -484 -632 -615 -1049 -611 -2497 10 -3553 329
-559 816 -1013 1374 -1280 205 -98 348 -134 400 -100 77 51 -25 198 -280 404
-162 132 -339 309 -384 385 -81 138 -107 270 -116 580 -13 454 -71 668 -224
826 -121 125 -180 269 -188 462 -10 203 37 344 151 461 74 75 106 127 147 239
43 118 66 223 84 381 27 245 71 401 171 603 274 549 837 995 1454 1150 176 44
307 58 500 52 307 -9 525 -65 825 -212 452 -220 822 -580 1029 -1000 100 -202
131 -322 179 -685 32 -236 98 -399 212 -521 119 -127 159 -237 158 -434 -2
-210 -55 -350 -187 -494 -89 -97 -136 -185 -171 -324 -36 -143 -46 -230 -55
-507 -7 -187 -15 -280 -29 -349 -46 -215 -145 -347 -451 -596 -247 -201 -370
-361 -318 -413 34 -34 159 -5 328 74 470 222 904 615 1248 1130 359 538 578
1154 623 1754 43 579 -111 1243 -417 1792 -418 752 -1106 1357 -1899 1671
-471 187 -970 265 -1444 226z"/>
<path d="M3420 5454 c-407 -79 -902 -292 -1056 -455 -51 -54 -60 -79 -40 -117
55 -107 454 -278 836 -358 199 -42 344 -51 507 -31 365 45 832 208 983 344 67
60 69 95 8 156 -183 182 -835 448 -1133 462 -44 2 -91 1 -105 -1z"/>
<path d="M1992 4390 c-56 -24 -97 -199 -97 -420 0 -138 2 -159 21 -190 39 -67
135 -100 349 -121 164 -16 1884 -24 2235 -10 457 18 551 40 608 145 23 43 22
307 -1 415 -50 226 -172 241 -545 67 -76 -36 -172 -76 -214 -90 -362 -118
-915 -149 -1358 -75 -228 38 -338 73 -617 197 -149 67 -327 105 -381 82z"/>
<path d="M1985 3193 c-112 -5 -310 -24 -357 -34 -37 -8 -56 -20 -82 -51 -111
-129 -2 -216 329 -263 238 -33 363 -37 1238 -42 l887 -5 0 -276 c0 -153 5
-317 10 -367 30 -266 111 -399 183 -302 55 73 87 238 87 452 0 249 25 364 91
419 63 54 136 69 522 111 154 17 336 57 420 94 47 20 97 61 97 80 0 23 -148
58 -340 81 -338 40 -962 78 -1645 100 -265 9 -1281 11 -1440 3z"/>
<path d="M1893 2014 c4 -327 7 -380 25 -463 86 -387 343 -521 1077 -562 244
-13 1040 -6 1210 11 576 57 801 191 885 524 26 103 43 334 35 461 -19 278 -79
389 -211 389 -74 0 -123 -35 -164 -117 -28 -57 -32 -79 -41 -198 -17 -238 -63
-356 -182 -473 -118 -116 -253 -170 -422 -169 -163 1 -306 58 -422 166 -114
107 -168 212 -210 407 -46 220 -74 276 -161 323 -97 53 -159 58 -820 64 l-604
5 5 -368z"/>
<path d="M3065 544 c-179 -21 -269 -51 -295 -99 -33 -62 -7 -173 56 -244 177
-197 758 -262 1159 -130 102 34 159 65 218 118 101 91 101 224 1 283 -46 27
-166 55 -289 67 -97 10 -774 13 -850 5z"/>
</g>
</svg>
